<mxfile host="Electron" modified="2023-12-23T19:05:48.001Z" agent="Mozilla/5.0 (Windows NT 10.0; Win64; x64) AppleWebKit/537.36 (KHTML, like Gecko) draw.io/22.1.11 Chrome/114.0.5735.289 Electron/25.9.8 Safari/537.36" version="22.1.11" etag="BZGJ1Za-48lwpkYX4aPN" type="device">
  <diagram name="Страница-1" id="Page-1">
    <mxGraphModel dx="1036" dy="614" grid="1" gridSize="10" guides="1" tooltips="1" connect="1" arrows="1" fold="1" page="1" pageScale="1" pageWidth="827" pageHeight="1169" math="0" shadow="0">
      <root>
        <mxCell id="0" />
        <mxCell id="1" parent="0" />
        <UserObject label="&lt;div style=&quot;font-size: 1px&quot;&gt;&lt;font style=&quot;font-size:11.29px;font-family:Calibri;color:#feffff;direction:ltr;letter-spacing:0px;line-height:120%;opacity:1&quot;&gt;Начало&lt;br/&gt;&lt;/font&gt;&lt;/div&gt;" tags="Блок-схема" id="2">
          <mxCell style="verticalAlign=middle;align=center;overflow=width;vsdxID=1;shape=stencil(tVLLDsIgEPwajiQIMfFe638Qu22JCM2Ctv69kK0Rm9qDibeZndkXC1NV6PUATIoQ0V9gNE3smToyKY3rAU1MiKmaqar1CB36m2uIDzo7M7r6e64wUZ4UOUWKB9GdIH4irzWu8B42vRrPScNFXZzN+5mvl3qJXE8mcPRRR+Pdh2Y1dsBTE95a3c0TkBRGgKEIb6wg1/r+ssCXd/vLCgm8z9caa+n6pb48dwrRV1H1Ew==);spacingTop=-1;spacingBottom=-1;spacingLeft=-1;spacingRight=-1;points=[[0.5,1,0],[0.5,0,0],[0,0.5,0],[1,0.5,0]];labelBackgroundColor=none;rounded=0;html=1;whiteSpace=wrap;" parent="1" vertex="1">
            <mxGeometry x="130" y="80" width="100" height="40" as="geometry" />
          </mxCell>
        </UserObject>
        <UserObject label="" tags="Блок-схема" id="3">
          <mxCell style="vsdxID=2;shape=stencil(UzV2Ls5ILEhVNTIoLinKz04tz0wpyVA1dlE1MsrMy0gtyiwBslSNXVWNndPyi1LTi/JL81Ig/IJEkEoQKze/DGRCBUSfrqEBSI+RQSWEb2gA4btBFOdk5iEptiRBrSGawfiUEq2SgGuBDIQ/0zJzciDBhCyPHi5AIUiYGrsCAA==);spacingTop=-1;spacingBottom=-1;spacingLeft=-1;spacingRight=-1;points=[[0,0.5,0],[1,0.5,0],[0.5,1,0],[0.5,0,0]];labelBackgroundColor=none;rounded=0;html=1;whiteSpace=wrap;" parent="1" vertex="1">
            <mxGeometry x="130" y="140" width="100" height="40" as="geometry" />
          </mxCell>
        </UserObject>
        <mxCell id="4" value="&lt;div style=&quot;font-size: 1px&quot;&gt;&lt;font style=&quot;font-size:11.29px;font-family:Calibri;color:#feffff;direction:ltr;letter-spacing:0px;line-height:120%;opacity:1&quot;&gt;Ввод строки &#39;&lt;/font&gt;&lt;font style=&quot;font-size:11.29px;font-family:Themed;color:#feffff;direction:ltr;letter-spacing:0px;line-height:120%;opacity:1&quot;&gt;s&#39;&lt;br&gt;&lt;/font&gt;&lt;/div&gt;" style="text;vsdxID=2;spacingTop=-1;spacingBottom=-1;spacingLeft=-1;spacingRight=-1;points=[[0,0.5,0],[1,0.5,0],[0.5,1,0],[0.5,0,0]];labelBackgroundColor=none;rounded=0;html=1;whiteSpace=wrap;verticalAlign=middle;align=center;overflow=width;;html=1;" parent="3" vertex="1">
          <mxGeometry x="16.67" width="66.67" height="40" as="geometry" />
        </mxCell>
        <UserObject label="&lt;div style=&quot;font-size: 1px&quot;&gt;&lt;font style=&quot;font-size:11.29px;font-family:Calibri;color:#feffff;direction:ltr;letter-spacing:0px;line-height:120%;opacity:1&quot;&gt;len = &lt;/font&gt;&lt;font style=&quot;font-size:11.29px;font-family:Themed;color:#feffff;direction:ltr;letter-spacing:0px;line-height:120%;opacity:1&quot;&gt;длина строки &#39;&lt;/font&gt;&lt;font style=&quot;font-size:11.29px;font-family:Themed;color:#feffff;direction:ltr;letter-spacing:0px;line-height:120%;opacity:1&quot;&gt;s&#39;&lt;br&gt;&lt;/font&gt;&lt;/div&gt;" tags="Блок-схема" id="5">
          <mxCell style="verticalAlign=middle;align=center;overflow=width;vsdxID=9;shape=stencil(nZBLDoAgDERP0z3SIyjew0SURgSD+Lu9kMZoXLhwN9O+tukAlrNpJg1SzDH4QW/URgNYgZTkjA4UkwJUgGXng+6DX1zLfmoymdXo17xh5zmRJ6Q42BWCfc2oJfdAr+Yv+AP9Cb7OJ3H/2JG1HNGz/84klThPVCc=);spacingTop=-1;spacingBottom=-1;spacingLeft=-1;spacingRight=-1;points=[[0,0.5,0],[1,0.5,0],[0.5,1,0],[0.5,0,0]];labelBackgroundColor=none;rounded=0;html=1;whiteSpace=wrap;" parent="1" vertex="1">
            <mxGeometry x="130" y="196" width="100" height="40" as="geometry" />
          </mxCell>
        </UserObject>
        <UserObject label="&lt;div style=&quot;font-size: 1px&quot;&gt;&lt;font style=&quot;font-size:11.29px;font-family:Calibri;color:#feffff;direction:ltr;letter-spacing:0px;line-height:120%;opacity:1&quot;&gt;last_char = s[len]&lt;br/&gt;&lt;/font&gt;&lt;/div&gt;" tags="Блок-схема" id="6">
          <mxCell style="verticalAlign=middle;align=center;overflow=width;vsdxID=14;shape=stencil(nZBLDoAgDERP0z3SIyjew0SURgSD+Lu9kMZoXLhwN9O+tukAlrNpJg1SzDH4QW/URgNYgZTkjA4UkwJUgGXng+6DX1zLfmoymdXo17xh5zmRJ6Q42BWCfc2oJfdAr+Yv+AP9Cb7OJ3H/2JG1HNGz/84klThPVCc=);spacingTop=-1;spacingBottom=-1;spacingLeft=-1;spacingRight=-1;points=[[0,0.5,0],[1,0.5,0],[0.5,1,0],[0.5,0,0]];labelBackgroundColor=none;rounded=0;html=1;whiteSpace=wrap;" parent="1" vertex="1">
            <mxGeometry x="130" y="252" width="100" height="40" as="geometry" />
          </mxCell>
        </UserObject>
        <UserObject label="" tags="Фон" id="7">
          <mxCell style="vsdxID=20;spacingTop=-1;spacingBottom=-1;spacingLeft=-1;spacingRight=-1;points=[[0.52,0,0],[0.52,1,0],[0.5,0,0],[0.5,1,0]];labelBackgroundColor=none;rounded=0;html=1;whiteSpace=wrap;" parent="1" vertex="1">
            <mxGeometry x="124" y="308" width="111" height="56" as="geometry" />
          </mxCell>
        </UserObject>
        <mxCell id="8" style="vsdxID=21;spacingTop=-1;spacingBottom=-1;spacingLeft=-1;spacingRight=-1;points=[[0.52,0,0],[0.52,1,0],[0.5,0,0],[0.5,1,0]];labelBackgroundColor=none;rounded=0;html=1;whiteSpace=wrap;" parent="7" vertex="1">
          <mxGeometry x="1" width="110" height="56" as="geometry" />
        </mxCell>
        <mxCell id="9" style="vsdxID=22;shape=stencil(jZBLDoMwDERP4y1K7E32lN4DidBYTRMU0g+3byILQbtA7GbsZ8seoHZ2/WQB1ZxTvNs3D9kBXQCRg7OJc1FAHVA7xmRvKT7DIH7qK1nVI77qho/MqTqBahGnlfiroJ7DDl2bp2CjG4M/+NFm02hzFj48oojt05G9l6D2/f9kSklSpe4L);spacingTop=-1;spacingBottom=-1;spacingLeft=-1;spacingRight=-1;points=[[0.52,0,0],[0.52,1,0],[0.5,0,0],[0.5,1,0]];labelBackgroundColor=none;rounded=0;html=1;whiteSpace=wrap;" parent="8" vertex="1">
          <mxGeometry width="110" height="27" as="geometry" />
        </mxCell>
        <mxCell id="10" style="vsdxID=23;shape=stencil(nZBLDoAgDERP0z3SIyjew0SURgSD+Lu9kMZoXLhwN9O+tukAlrNpJg1SzDH4QW/URgNYgZTkjA4UkwJUgGXng+6DX1zLfmoymdXo17xh5zmRJ6Q42BWCfc2oJfdAr+Yv+AP9Cb7OJ3H/2JG1HNGz/84klThPVCc=);spacingTop=-1;spacingBottom=-1;spacingLeft=-1;spacingRight=-1;points=[[0.52,0,0],[0.52,1,0],[0.5,0,0],[0.5,1,0]];labelBackgroundColor=none;rounded=0;html=1;whiteSpace=wrap;" parent="8" vertex="1">
          <mxGeometry y="27" width="110" height="29" as="geometry" />
        </mxCell>
        <mxCell id="11" value="&lt;div style=&quot;font-size: 1px&quot;&gt;&lt;p style=&quot;text-align:center;margin-left:0;margin-right:0;margin-top:0px;margin-bottom:0px;text-indent:0;vertical-align:middle;direction:ltr;&quot;&gt;&lt;font style=&quot;font-size:11.29px;font-family:Calibri;color:#ffffff;direction:ltr;letter-spacing:0px;line-height:120%;opacity:1&quot;&gt;Начало цикла&lt;/font&gt;&lt;font style=&quot;font-size:11.29px;font-family:Themed;color:#ffffff;direction:ltr;letter-spacing:0px;line-height:120%;opacity:1&quot;&gt;&lt;br/&gt;i &lt;/font&gt;&lt;font style=&quot;font-size:11.29px;font-family:Themed;color:#ffffff;direction:ltr;letter-spacing:0px;line-height:120%;opacity:1&quot;&gt;от 1 до &lt;/font&gt;&lt;font style=&quot;font-size:11.29px;font-family:Themed;color:#ffffff;direction:ltr;letter-spacing:0px;line-height:120%;opacity:1&quot;&gt;len -1&lt;br/&gt;&lt;/font&gt;&lt;/p&gt;&lt;/div&gt;" style="verticalAlign=middle;align=center;overflow=width;vsdxID=24;shape=stencil(nZBLDoAgDERP0z3SIyjew0SURgSD+Lu9kMZoXLhwN9O+tukAlrNpJg1SzDH4QW/URgNYgZTkjA4UkwJUgGXng+6DX1zLfmoymdXo17xh5zmRJ6Q42BWCfc2oJfdAr+Yv+AP9Cb7OJ3H/2JG1HNGz/84klThPVCc=);spacingTop=-1;spacingBottom=-1;spacingLeft=-1;spacingRight=-1;points=[[0.52,0,0],[0.52,1,0],[0.5,0,0],[0.5,1,0]];labelBackgroundColor=none;rounded=0;html=1;whiteSpace=wrap;" parent="7" vertex="1">
          <mxGeometry width="111" height="56" as="geometry" />
        </mxCell>
        <UserObject label="" tags="Фон" id="12">
          <mxCell style="vsdxID=25;fillColor=none;gradientColor=none;strokeColor=none;spacingTop=-1;spacingBottom=-1;spacingLeft=-1;spacingRight=-1;points=[];labelBackgroundColor=none;rounded=0;html=1;whiteSpace=wrap;" parent="1" vertex="1">
            <mxGeometry x="103" y="381" width="152" height="70" as="geometry" />
          </mxCell>
        </UserObject>
        <mxCell id="13" style="vsdxID=26;spacingTop=-1;spacingBottom=-1;spacingLeft=-1;spacingRight=-1;points=[];labelBackgroundColor=none;rounded=0;html=1;whiteSpace=wrap;" parent="12" vertex="1">
          <mxGeometry x="25" width="126" height="70" as="geometry" />
        </mxCell>
        <mxCell id="14" style="vsdxID=27;shape=stencil(UzV2Ls5ILEhVNTIoLinKz04tz0wpyVA1dlE1MsrMy0gtyiwBslSNXVWNndPyi1LTi/JL81Ig/IJEkEoQKze/DGRCBUSfAUiHkUElhGcK4bpBVOZk5iGpNEVVikeloQHZpsK0YlWLz1QgA+HFtMycHEgIIcujBwlQCBKcxq4A);spacingTop=-1;spacingBottom=-1;spacingLeft=-1;spacingRight=-1;points=[];labelBackgroundColor=none;rounded=0;html=1;whiteSpace=wrap;" parent="13" vertex="1">
          <mxGeometry width="100" height="60" as="geometry" />
        </mxCell>
        <mxCell id="15" value="&lt;div style=&quot;font-size: 1px&quot;&gt;&lt;font style=&quot;font-size:11.29px;font-family:Calibri;color:#feffff;direction:ltr;letter-spacing:0px;line-height:120%;opacity:1&quot;&gt;s[i] = last_char&lt;br/&gt;&lt;/font&gt;&lt;/div&gt;" style="text;vsdxID=27;spacingTop=-1;spacingBottom=-1;spacingLeft=-1;spacingRight=-1;points=[];labelBackgroundColor=none;rounded=0;html=1;whiteSpace=wrap;verticalAlign=middle;align=center;overflow=width;;html=1;" parent="14" vertex="1">
          <mxGeometry x="8.33" y="7.5" width="83.33" height="45" as="geometry" />
        </mxCell>
        <mxCell id="16" value="&lt;div style=&quot;font-size: 1px&quot;&gt;&lt;font style=&quot;font-size: 11.29px; font-family: Calibri; direction: ltr; letter-spacing: 0px; line-height: 120%; opacity: 1;&quot;&gt;&lt;font style=&quot;background-color: rgb(0, 0, 0);&quot; color=&quot;#ffffff&quot;&gt;Да&lt;/font&gt;&lt;br&gt;&lt;/font&gt;&lt;/div&gt;" style="verticalAlign=middle;align=center;overflow=width;vsdxID=28;shape=stencil(nZBLDoAgDERP0z3SIyjew0SURgSD+Lu9kMZoXLhwN9O+tukAlrNpJg1SzDH4QW/URgNYgZTkjA4UkwJUgGXng+6DX1zLfmoymdXo17xh5zmRJ6Q42BWCfc2oJfdAr+Yv+AP9Cb7OJ3H/2JG1HNGz/84klThPVCc=);spacingTop=-1;spacingBottom=-1;spacingLeft=-1;spacingRight=-1;points=[];labelBackgroundColor=none;rounded=0;html=1;whiteSpace=wrap;" parent="12" vertex="1">
          <mxGeometry x="80" y="55" width="31" height="10" as="geometry" />
        </mxCell>
        <mxCell id="17" value="&lt;div style=&quot;font-size: 1px&quot;&gt;&lt;font style=&quot;font-size: 11.29px; font-family: Calibri; direction: ltr; letter-spacing: 0px; line-height: 120%; opacity: 1;&quot;&gt;&lt;font color=&quot;#ffffff&quot;&gt;Нет&lt;/font&gt;&lt;br&gt;&lt;/font&gt;&lt;/div&gt;" style="verticalAlign=middle;align=center;overflow=width;vsdxID=29;shape=stencil(nZBLDoAgDERP0z3SIyjew0SURgSD+Lu9kMZoXLhwN9O+tukAlrNpJg1SzDH4QW/URgNYgZTkjA4UkwJUgGXng+6DX1zLfmoymdXo17xh5zmRJ6Q42BWCfc2oJfdAr+Yv+AP9Cb7OJ3H/2JG1HNGz/84klThPVCc=);spacingTop=-1;spacingBottom=-1;spacingLeft=-1;spacingRight=-1;points=[];labelBackgroundColor=none;rounded=0;html=1;whiteSpace=wrap;" parent="12" vertex="1">
          <mxGeometry x="112" y="10" width="31" height="10" as="geometry" />
        </mxCell>
        <UserObject label="" tags="Блок-схема" id="18">
          <mxCell style="vsdxID=30;shape=stencil(UzV2Ls5ILEhVNTIoLinKz04tz0wpyVA1dlE1MsrMy0gtyiwBslSNXVWNndPyi1LTi/JL81Ig/IJEkEoQKze/DGRCBUSfrqEBSI+RQSWEb2gA4btBFOdk5iEptiRBrSGawfiUEq2SgGuBDIQ/0zJzciDBhCyPHi5AIUiYGrsCAA==);spacingTop=-1;spacingBottom=-1;spacingLeft=-1;spacingRight=-1;points=[[0,0.5,0],[1,0.5,0],[0.5,1,0],[0.5,0,0]];labelBackgroundColor=none;rounded=0;html=1;whiteSpace=wrap;" parent="1" vertex="1">
            <mxGeometry x="130" y="467" width="100" height="40" as="geometry" />
          </mxCell>
        </UserObject>
        <mxCell id="19" value="&lt;div style=&quot;font-size: 1px&quot;&gt;&lt;p style=&quot;text-align:center;margin-left:0;margin-right:0;margin-top:0px;margin-bottom:0px;text-indent:0;vertical-align:middle;direction:ltr;&quot;&gt;&lt;font style=&quot;font-size:11.29px;font-family:Calibri;color:#feffff;direction:ltr;letter-spacing:0px;line-height:120%;opacity:1&quot;&gt;Вывести &#39;&lt;/font&gt;&lt;font style=&quot;font-size:11.29px;font-family:Themed;color:#feffff;direction:ltr;letter-spacing:0px;line-height:120%;opacity:1&quot;&gt;i&#39;&lt;br&gt;&lt;/font&gt;&lt;/p&gt;&lt;/div&gt;" style="text;vsdxID=30;spacingTop=-1;spacingBottom=-1;spacingLeft=-1;spacingRight=-1;points=[[0,0.5,0],[1,0.5,0],[0.5,1,0],[0.5,0,0]];labelBackgroundColor=none;rounded=0;html=1;whiteSpace=wrap;verticalAlign=middle;align=center;overflow=width;;html=1;" parent="18" vertex="1">
          <mxGeometry x="16.67" width="66.67" height="40" as="geometry" />
        </mxCell>
        <UserObject label="" tags="Фон" id="20">
          <mxCell style="vsdxID=31;spacingTop=-1;spacingBottom=-1;spacingLeft=-1;spacingRight=-1;points=[[0.49,0,0],[0.51,1,0]];labelBackgroundColor=none;rounded=0;html=1;whiteSpace=wrap;" parent="1" vertex="1">
            <mxGeometry x="168" y="535" width="110" height="56" as="geometry" />
          </mxCell>
        </UserObject>
        <mxCell id="21" style="vsdxID=32;rotation=180;spacingTop=-1;spacingBottom=-1;spacingLeft=-1;spacingRight=-1;points=[[0.49,0,0],[0.51,1,0]];labelBackgroundColor=none;rounded=0;html=1;whiteSpace=wrap;" parent="20" vertex="1">
          <mxGeometry width="110" height="56" as="geometry" />
        </mxCell>
        <mxCell id="22" style="vsdxID=33;rotation=180;shape=stencil(jZBLDoMwDERP4y1K7E32lN4DidBYTRMU0g+3byILQbtA7GbsZ8seoHZ2/WQB1ZxTvNs3D9kBXQCRg7OJc1FAHVA7xmRvKT7DIH7qK1nVI77qho/MqTqBahGnlfiroJ7DDl2bp2CjG4M/+NFm02hzFj48oojt05G9l6D2/f9kSklSpe4L);spacingTop=-1;spacingBottom=-1;spacingLeft=-1;spacingRight=-1;points=[[0.49,0,0],[0.51,1,0]];labelBackgroundColor=none;rounded=0;html=1;whiteSpace=wrap;" parent="21" vertex="1">
          <mxGeometry y="29" width="110" height="27" as="geometry" />
        </mxCell>
        <mxCell id="23" style="vsdxID=34;rotation=180;shape=stencil(nZBLDoAgDERP0z3SIyjew0SURgSD+Lu9kMZoXLhwN9O+tukAlrNpJg1SzDH4QW/URgNYgZTkjA4UkwJUgGXng+6DX1zLfmoymdXo17xh5zmRJ6Q42BWCfc2oJfdAr+Yv+AP9Cb7OJ3H/2JG1HNGz/84klThPVCc=);spacingTop=-1;spacingBottom=-1;spacingLeft=-1;spacingRight=-1;points=[[0.49,0,0],[0.51,1,0]];labelBackgroundColor=none;rounded=0;html=1;whiteSpace=wrap;" parent="21" vertex="1">
          <mxGeometry width="110" height="29" as="geometry" />
        </mxCell>
        <mxCell id="24" value="&lt;div style=&quot;font-size: 1px&quot;&gt;&lt;p style=&quot;text-align:center;margin-left:0;margin-right:0;margin-top:0px;margin-bottom:0px;text-indent:0;vertical-align:middle;direction:ltr;&quot;&gt;&lt;font style=&quot;font-size:11.29px;font-family:Calibri;color:#ffffff;direction:ltr;letter-spacing:0px;line-height:120%;opacity:1&quot;&gt;Конец цикла&lt;/font&gt;&lt;font style=&quot;font-size:11.29px;font-family:Themed;color:#ffffff;direction:ltr;letter-spacing:0px;line-height:120%;opacity:1&quot;&gt;&lt;br&gt;&lt;/font&gt;&lt;font style=&quot;font-size:11.29px;font-family:Themed;color:#ffffff;direction:ltr;letter-spacing:0px;line-height:120%;opacity:1&quot;&gt;&#39;i&#39;&lt;br&gt;&lt;/font&gt;&lt;/p&gt;&lt;/div&gt;" style="verticalAlign=middle;align=center;overflow=width;vsdxID=35;shape=stencil(nZBLDoAgDERP0z3SIyjew0SURgSD+Lu9kMZoXLhwN9O+tukAlrNpJg1SzDH4QW/URgNYgZTkjA4UkwJUgGXng+6DX1zLfmoymdXo17xh5zmRJ6Q42BWCfc2oJfdAr+Yv+AP9Cb7OJ3H/2JG1HNGz/84klThPVCc=);spacingTop=-1;spacingBottom=-1;spacingLeft=-1;spacingRight=-1;points=[[0.49,0,0],[0.51,1,0]];labelBackgroundColor=none;rounded=0;html=1;whiteSpace=wrap;" parent="20" vertex="1">
          <mxGeometry width="110" height="56" as="geometry" />
        </mxCell>
        <UserObject label="&lt;div style=&quot;font-size: 1px&quot;&gt;&lt;font style=&quot;font-size:11.29px;font-family:Calibri;color:#feffff;direction:ltr;letter-spacing:0px;line-height:120%;opacity:1&quot;&gt;Конец&lt;br/&gt;&lt;/font&gt;&lt;/div&gt;" tags="Блок-схема" id="25">
          <mxCell style="verticalAlign=middle;align=center;overflow=width;vsdxID=36;shape=stencil(tVLLDsIgEPwajiQIMfFe638Qu22JCM2Ctv69kK0Rm9qDibeZndkXC1NV6PUATIoQ0V9gNE3smToyKY3rAU1MiKmaqar1CB36m2uIDzo7M7r6e64wUZ4UOUWKB9GdIH4irzWu8B42vRrPScNFXZzN+5mvl3qJXE8mcPRRR+Pdh2Y1dsBTE95a3c0TkBRGgKEIb6wg1/r+ssCXd/vLCgm8z9caa+n6pb48dwrRV1H1Ew==);spacingTop=-1;spacingBottom=-1;spacingLeft=-1;spacingRight=-1;points=[[0.5,1,0],[0.5,0,0],[0,0.5,0],[1,0.5,0]];labelBackgroundColor=none;rounded=0;html=1;whiteSpace=wrap;" parent="1" vertex="1">
            <mxGeometry x="173" y="619" width="100" height="40" as="geometry" />
          </mxCell>
        </UserObject>
        <UserObject label="" tags="Соединительная_линия" id="26">
          <mxCell style="vsdxID=6;edgeStyle=none;startArrow=none;endArrow=block;startSize=5;endSize=5;spacingTop=0;spacingBottom=0;spacingLeft=0;spacingRight=0;verticalAlign=middle;html=1;labelBackgroundColor=#ffffff;rounded=0;exitX=0.5;exitY=1;exitDx=0;exitDy=0;exitPerimeter=0;entryX=0.5;entryY=0;entryDx=0;entryDy=0;entryPerimeter=0;" parent="1" source="2" target="3" edge="1">
            <mxGeometry relative="1" as="geometry">
              <mxPoint x="10" as="offset" />
              <Array as="points" />
            </mxGeometry>
          </mxCell>
        </UserObject>
        <UserObject label="" tags="Соединительная_линия" id="27">
          <mxCell style="vsdxID=10;edgeStyle=none;startArrow=none;endArrow=block;startSize=5;endSize=5;spacingTop=0;spacingBottom=0;spacingLeft=0;spacingRight=0;verticalAlign=middle;html=1;labelBackgroundColor=#ffffff;rounded=0;exitX=0.5;exitY=1;exitDx=0;exitDy=0;exitPerimeter=0;entryX=0.5;entryY=0;entryDx=0;entryDy=0;entryPerimeter=0;" parent="1" source="3" target="5" edge="1">
            <mxGeometry relative="1" as="geometry">
              <mxPoint x="10" as="offset" />
              <Array as="points" />
            </mxGeometry>
          </mxCell>
        </UserObject>
        <UserObject label="" tags="Соединительная_линия" id="28">
          <mxCell style="vsdxID=46;edgeStyle=none;startArrow=none;endArrow=block;startSize=5;endSize=5;spacingTop=0;spacingBottom=0;spacingLeft=0;spacingRight=0;verticalAlign=middle;html=1;labelBackgroundColor=#ffffff;rounded=0;exitX=1.01;exitY=0.5;exitDx=0;exitDy=0;exitPerimeter=0;entryX=0.4909090909090909;entryY=0;entryDx=0;entryDy=0;entryPerimeter=0;" parent="1" source="14" target="20" edge="1">
            <mxGeometry relative="1" as="geometry">
              <mxPoint x="-7" y="-1" as="offset" />
              <Array as="points">
                <mxPoint x="244" y="411" />
                <mxPoint x="244" y="519.88" />
                <mxPoint x="221.6" y="519.88" />
              </Array>
            </mxGeometry>
          </mxCell>
        </UserObject>
        <UserObject label="" tags="Соединительная_линия" id="29">
          <mxCell style="vsdxID=45;edgeStyle=none;startArrow=none;endArrow=block;startSize=5;endSize=5;spacingTop=0;spacingBottom=0;spacingLeft=0;spacingRight=0;verticalAlign=middle;html=1;labelBackgroundColor=#ffffff;rounded=0;exitX=0.509090909090909;exitY=1.0178571428571428;exitDx=0;exitDy=0;exitPerimeter=0;entryX=0.5;entryY=0;entryDx=0;entryDy=0;entryPerimeter=0;" parent="1" source="20" target="25" edge="1">
            <mxGeometry relative="1" as="geometry">
              <mxPoint x="-10" as="offset" />
              <Array as="points">
                <mxPoint x="224" y="607" />
                <mxPoint x="223" y="607" />
              </Array>
            </mxGeometry>
          </mxCell>
        </UserObject>
        <UserObject label="" tags="Соединительная_линия" id="30">
          <mxCell style="vsdxID=44;edgeStyle=none;startArrow=none;endArrow=block;startSize=5;endSize=5;spacingTop=0;spacingBottom=0;spacingLeft=0;spacingRight=0;verticalAlign=middle;html=1;labelBackgroundColor=#ffffff;rounded=0;exitX=0.5;exitY=1;exitDx=0;exitDy=0;exitPerimeter=0;entryX=0.4909090909090909;entryY=0;entryDx=0;entryDy=0;entryPerimeter=0;" parent="1" source="18" target="20" edge="1">
            <mxGeometry relative="1" as="geometry">
              <mxPoint x="-1" as="offset" />
              <Array as="points">
                <mxPoint x="180" y="520.25" />
                <mxPoint x="222" y="520.25" />
              </Array>
            </mxGeometry>
          </mxCell>
        </UserObject>
        <UserObject label="" tags="Соединительная_линия" id="31">
          <mxCell style="vsdxID=43;edgeStyle=none;startArrow=none;endArrow=block;startSize=5;endSize=5;spacingTop=0;spacingBottom=0;spacingLeft=0;spacingRight=0;verticalAlign=middle;html=1;labelBackgroundColor=#ffffff;rounded=0;exitX=0.51;exitY=1;exitDx=0;exitDy=0;exitPerimeter=0;entryX=0.5;entryY=0;entryDx=0;entryDy=0;entryPerimeter=0;" parent="1" source="14" target="18" edge="1">
            <mxGeometry relative="1" as="geometry">
              <mxPoint x="9" as="offset" />
              <Array as="points">
                <mxPoint x="179" y="450.53" />
                <mxPoint x="179.6" y="450.53" />
              </Array>
            </mxGeometry>
          </mxCell>
        </UserObject>
        <UserObject label="" tags="Соединительная_линия" id="32">
          <mxCell style="vsdxID=42;edgeStyle=none;startArrow=none;endArrow=block;startSize=5;endSize=5;spacingTop=0;spacingBottom=0;spacingLeft=0;spacingRight=0;verticalAlign=middle;html=1;labelBackgroundColor=#ffffff;rounded=0;exitX=0.5045045045045045;exitY=1.0178571428571428;exitDx=0;exitDy=0;exitPerimeter=0;entryX=0.51;entryY=0;entryDx=0;entryDy=0;entryPerimeter=0;" parent="1" source="7" target="14" edge="1">
            <mxGeometry relative="1" as="geometry">
              <mxPoint x="-10" as="offset" />
              <Array as="points">
                <mxPoint x="180" y="373.63" />
                <mxPoint x="179.4" y="373.63" />
              </Array>
            </mxGeometry>
          </mxCell>
        </UserObject>
        <UserObject label="" tags="Соединительная_линия" id="33">
          <mxCell style="vsdxID=37;edgeStyle=none;startArrow=none;endArrow=block;startSize=5;endSize=5;spacingTop=0;spacingBottom=0;spacingLeft=0;spacingRight=0;verticalAlign=middle;html=1;labelBackgroundColor=#ffffff;rounded=0;exitX=0.5;exitY=1;exitDx=0;exitDy=0;exitPerimeter=0;entryX=0.5;entryY=0;entryDx=0;entryDy=0;entryPerimeter=0;" parent="1" source="5" target="6" edge="1">
            <mxGeometry relative="1" as="geometry">
              <mxPoint x="10" as="offset" />
              <Array as="points" />
            </mxGeometry>
          </mxCell>
        </UserObject>
        <UserObject label="" tags="Соединительная_линия" id="34">
          <mxCell style="vsdxID=40;edgeStyle=none;startArrow=none;endArrow=block;startSize=5;endSize=5;spacingTop=0;spacingBottom=0;spacingLeft=0;spacingRight=0;verticalAlign=middle;html=1;labelBackgroundColor=#ffffff;rounded=0;exitX=0.5;exitY=1;exitDx=0;exitDy=0;exitPerimeter=0;entryX=0.5045045045045045;entryY=0;entryDx=0;entryDy=0;entryPerimeter=0;" parent="1" source="6" target="7" edge="1">
            <mxGeometry relative="1" as="geometry">
              <mxPoint x="10" as="offset" />
              <Array as="points" />
            </mxGeometry>
          </mxCell>
        </UserObject>
        <UserObject label="" tags="Блок-схема Соединительная_линия Выноска" id="35">
          <mxCell parent="1" vertex="1" visible="0">
            <mxGeometry as="geometry" />
          </mxCell>
        </UserObject>
      </root>
    </mxGraphModel>
  </diagram>
</mxfile>
